<?xml version="1.0" encoding="UTF-8" standalone="no"?>
<svg width="311px" height="331px" viewBox="0 0 311 331" version="1.1" xmlns="http://www.w3.org/2000/svg" xmlns:xlink="http://www.w3.org/1999/xlink">
    <!-- Generator: Sketch 41 (35326) - http://www.bohemiancoding.com/sketch -->
    <title>Noodle icon</title>
    <desc>Created with Sketch.</desc>
    <defs>
        <rect id="path-1" x="0" y="1" width="120" height="27" rx="9"></rect>
        <mask id="mask-2" maskContentUnits="userSpaceOnUse" maskUnits="objectBoundingBox" x="0" y="0" width="120" height="27" fill="white">
            <use xlink:href="#path-1"></use>
        </mask>
    </defs>
    <g id="Page-1" stroke="none" stroke-width="1" fill="none" fill-rule="evenodd">
        <g id="Noodle-icon" transform="translate(20.000000, 17.000000)">
            <g id="Noodles1" transform="translate(79.000000, 123.000000)" stroke="#6E6C6C" stroke-width="8">
                <g id="Group-3" transform="translate(87.000000, 12.000000)">
                    <path d="M0.278272927,9.13785959 C6.49950549,3.4616133 14.7762215,0 23.8614406,0 C41.4938001,0 56.080848,13.0385293 58.5069963,30 L48.36135,30 C46.0449983,18.5887984 35.9562301,10 23.8614406,10 C16.5854917,10 10.035512,13.1082436 5.4668907,18.0693418 C4.03746864,14.9231677 2.29559421,11.9343227 0.278272927,9.13785959 Z M37.6133095,30 C35.2986397,24.7022857 30.0123977,21 23.8614406,21 C17.7104835,21 12.4242415,24.7022857 10.1095716,30 L37.6133095,30 Z" id="Combined-Shape"></path>
                </g>
                <g id="Group-4">
                    <circle id="Oval-2-Copy-2" cx="45" cy="45" r="45"></circle>
                    <circle id="Oval-2" cx="45" cy="45" r="35"></circle>
                    <circle id="Oval-2-Copy" cx="45" cy="45" r="25"></circle>
                    <circle id="Oval-2-Copy-6" cx="45" cy="45" r="15"></circle>
                </g>
            </g>
            <g id="Bowl" transform="translate(0.000000, 166.000000)" stroke="#6E6C6C" stroke-width="9" fill="#D4763C">
                <path d="M247.999544,0.5 C247.758243,61.8407517 192.334214,111.5 124,111.5 C55.6657861,111.5 0.241757396,61.8407517 0.00045605637,0.5 L247.999544,0.5 Z" id="Combined-Shape"></path>
            </g>
            <g id="bowl-base" transform="translate(64.000000, 269.000000)" stroke="#6E6C6C" stroke-width="14" fill="#D4763C">
                <use id="Rectangle" mask="url(#mask-2)" xlink:href="#path-1"></use>
            </g>
            <g id="chopstics-and-noodles" transform="translate(32.000000, 0.000000)" stroke="#6E6C6C" stroke-linecap="round">
                <path d="M239.5,50.5 L7.5,107.5" id="Line" stroke-width="9"></path>
                <path d="M18,78.5 L18,166.5" id="Line-Copy-2" stroke-width="8"></path>
                <path d="M28,74.5 L28,162.5" id="Line-Copy-5" stroke-width="8"></path>
                <path d="M37,71.5 L37,107.5" id="Line-Copy-3" stroke-width="8"></path>
                <path d="M46,68.5 L46,114.5" id="Line-Copy-4" stroke-width="8"></path>
                <path d="M229.5,0.5 L0.5,89.5" id="Line-Copy" stroke-width="9"></path>
            </g>
            <path d="M66.9306955,232.703001 C66.3538846,232.722122 65.7746719,232.731759 65.1932086,232.731759 C38.3749139,232.731759 16.3443974,212.232844 13.9155275,186.048883 L66.9306955,232.703001 Z" id="blick" fill="#F3EEEE" transform="translate(40.423112, 209.390321) rotate(13.000000) translate(-40.423112, -209.390321) "></path>
        </g>
    </g>
</svg>